<svg width="28" height="28" viewBox="0 0 28 28" fill="none" xmlns="http://www.w3.org/2000/svg">
<path d="M8.05001 20.7L8.05001 11.5C8.05001 8.95948 10.1095 6.89999 12.65 6.89999L19.55 6.89999M8.05001 20.7C8.05001 23.2405 10.1095 25.3 12.65 25.3H15.3446C16.5646 25.3 17.7347 24.8153 18.5973 23.9527L22.8027 19.7473C23.6654 18.8846 24.15 17.7146 24.15 16.4946V11.5C24.15 8.95948 22.0905 6.89999 19.55 6.89999M8.05001 20.7C5.5095 20.7 3.45001 18.6405 3.45001 16.1L3.45001 6.89999C3.45001 4.35948 5.5095 2.29999 8.05001 2.29999L14.95 2.29999C17.4905 2.29999 19.55 4.35948 19.55 6.89999M17.25 25.3V23C17.25 20.4595 19.3095 18.4 21.85 18.4H24.15" stroke="#797C7B" stroke-width="1.5" stroke-linejoin="round"/>
</svg>
